<?xml version="1.0" encoding="utf-8"?>
<!-- Generator: Adobe Illustrator 23.0.2, SVG Export Plug-In . SVG Version: 6.00 Build 0)  -->
<svg version="1.1" id="Layer_1" xmlns="http://www.w3.org/2000/svg" xmlns:xlink="http://www.w3.org/1999/xlink" x="0px" y="0px"
	 viewBox="0 0 460 287" style="enable-background:new 0 0 460 287;" xml:space="preserve">
<style type="text/css">
	.st0{fill:#E6E6E6;}
	.st1{fill:none;stroke:#000000;stroke-miterlimit:10;}
	.st2{fill:#40C187;stroke:#000000;stroke-width:0.75;stroke-miterlimit:10;}
	.st3{fill:none;stroke:#000000;stroke-width:0.75;stroke-miterlimit:10;}
	.st4{opacity:0.19;fill:#40C187;enable-background:new    ;}
</style>
<circle class="st0" cx="272.6" cy="73.8" r="25.5"/>
<polygon class="st1" points="361.5,239.9 287.8,123.7 249.8,183.7 193,94.1 100.6,239.8 214.2,239.8 214.2,239.9 "/>
<polygon class="st2" points="73.5,227.6 62.6,221.3 73.5,196.6 83.6,221.3 "/>
<line class="st3" x1="73.4" y1="227.6" x2="73.4" y2="239.6"/>
<line class="st3" x1="74.1" y1="218.9" x2="77.1" y2="217.1"/>
<line class="st3" x1="75.2" y1="219.9" x2="78.3" y2="218.2"/>
<line class="st3" x1="76.8" y1="220.6" x2="79.9" y2="218.8"/>
<line class="st1" x1="403" y1="239.6" x2="53.5" y2="239.6"/>
<line class="st1" x1="172.5" y1="126.5" x2="183.4" y2="137.5"/>
<line class="st1" x1="193.4" y1="126.5" x2="182.4" y2="137.5"/>
<line class="st1" x1="192.4" y1="126.5" x2="203.3" y2="137.5"/>
<line class="st1" x1="213.3" y1="126.5" x2="202.3" y2="137.5"/>
<line class="st1" x1="267.9" y1="156.3" x2="278.9" y2="167.3"/>
<line class="st1" x1="288.8" y1="156.3" x2="277.9" y2="167.3"/>
<line class="st1" x1="287.8" y1="156.3" x2="298.8" y2="167.3"/>
<line class="st1" x1="308.7" y1="156.3" x2="297.8" y2="167.3"/>
<path class="st4" d="M141.3,101.4c0-0.2,0-0.3,0-0.5c0-8.1-6.5-14.7-14.6-14.7c-1.7,0-3.4,0.3-5,0.9c-2.7-9.6-12.6-15.2-22.2-12.6
	c-6.8,1.9-11.9,7.6-13,14.6c-7.8,0.4-13.9,7.1-13.5,14.9c0.4,7.2,6.1,13,13.2,13.5l0,0h53.1v-0.1c0.5,0.1,0.9,0.1,1.4,0.1
	c4.5,0.1,8.2-3.4,8.3-7.9s-3.4-8.2-7.9-8.3L141.3,101.4z"/>
<path class="st4" d="M386.4,127.2c0-0.1,0-0.2,0-0.3c0-5.5-4.4-9.9-9.9-9.9c-1.1,0-2.3,0.2-3.4,0.6c-1.8-6.5-8.5-10.2-14.9-8.5
	c-4.6,1.3-8,5.1-8.7,9.8c-5.3,0.4-9.2,5-8.8,10.3c0.4,4.7,4,8.4,8.7,8.8l0,0h35.7v-0.1c0.3,0.1,0.6,0.1,1,0.1c3,0.1,5.5-2.3,5.6-5.3
	C391.7,129.8,389.4,127.3,386.4,127.2L386.4,127.2z"/>
<polygon class="st2" points="244.2,226.9 233.5,220.6 244.2,196.4 254.1,220.6 "/>
<line class="st3" x1="244.1" y1="226.8" x2="244.1" y2="238.5"/>
<line class="st3" x1="244.8" y1="218.3" x2="247.8" y2="216.5"/>
<line class="st3" x1="245.9" y1="219.3" x2="248.9" y2="217.6"/>
<line class="st3" x1="247.5" y1="220" x2="250.5" y2="218.2"/>
<polygon class="st2" points="383.1,228.3 372.5,222.1 383.1,197.8 393,222.1 "/>
<line class="st3" x1="383.1" y1="228.3" x2="383.1" y2="240"/>
<line class="st3" x1="383.7" y1="219.8" x2="386.7" y2="218"/>
<line class="st3" x1="384.8" y1="220.8" x2="387.9" y2="219.1"/>
<line class="st3" x1="386.4" y1="221.4" x2="389.5" y2="219.6"/>
<polygon class="st2" points="211.1,227.3 200.3,221 211.1,196.3 221.2,221 "/>
<line class="st3" x1="211.1" y1="227.3" x2="211.1" y2="239.2"/>
<line class="st3" x1="211.7" y1="218.6" x2="214.8" y2="216.7"/>
<line class="st3" x1="212.9" y1="219.6" x2="216" y2="217.9"/>
<line class="st3" x1="214.5" y1="220.3" x2="217.6" y2="218.5"/>
<polygon class="st2" points="275.8,226.3 264.9,220 275.8,195.3 285.9,220 "/>
<line class="st3" x1="275.7" y1="226.3" x2="275.7" y2="238.2"/>
<line class="st3" x1="276.4" y1="217.6" x2="279.4" y2="215.8"/>
<line class="st3" x1="277.5" y1="218.6" x2="280.6" y2="216.9"/>
<line class="st3" x1="279.1" y1="219.3" x2="282.2" y2="217.5"/>
</svg>
